<mxfile host="app.diagrams.net" modified="2021-12-02T05:23:59.027Z" agent="5.0 (Windows NT 10.0; Win64; x64) AppleWebKit/537.36 (KHTML, like Gecko) Chrome/96.0.4664.45 Safari/537.36" etag="HMbGGx9BUKfVVLXWoDX8" version="15.8.8" type="github">
  <diagram id="cm0wuaRb_GgHAv5zl8hj" name="Page-1">
    <mxGraphModel dx="1038" dy="579" grid="1" gridSize="10" guides="1" tooltips="1" connect="1" arrows="1" fold="1" page="1" pageScale="1" pageWidth="827" pageHeight="1169" math="0" shadow="0">
      <root>
        <mxCell id="0" />
        <mxCell id="1" parent="0" />
        <mxCell id="3t87ci0f_u1np2Z85wXJ-1" value="사용자 핸드폰의 알림정보 탈취" style="ellipse;whiteSpace=wrap;html=1;" vertex="1" parent="1">
          <mxGeometry x="310" y="40" width="150" height="130" as="geometry" />
        </mxCell>
        <mxCell id="3t87ci0f_u1np2Z85wXJ-2" value="" style="endArrow=none;html=1;rounded=0;entryX=0.097;entryY=0.786;entryDx=0;entryDy=0;entryPerimeter=0;exitX=0.75;exitY=0.125;exitDx=0;exitDy=0;exitPerimeter=0;" edge="1" parent="1" source="3t87ci0f_u1np2Z85wXJ-3" target="3t87ci0f_u1np2Z85wXJ-1">
          <mxGeometry width="50" height="50" relative="1" as="geometry">
            <mxPoint x="290" y="180" as="sourcePoint" />
            <mxPoint x="340" y="130" as="targetPoint" />
          </mxGeometry>
        </mxCell>
        <mxCell id="3t87ci0f_u1np2Z85wXJ-3" value="스마트워치 탈취" style="ellipse;whiteSpace=wrap;html=1;aspect=fixed;" vertex="1" parent="1">
          <mxGeometry x="170" y="200" width="100" height="100" as="geometry" />
        </mxCell>
        <mxCell id="3t87ci0f_u1np2Z85wXJ-4" value="핸드폰 탈취" style="ellipse;whiteSpace=wrap;html=1;aspect=fixed;" vertex="1" parent="1">
          <mxGeometry x="335" y="200" width="100" height="100" as="geometry" />
        </mxCell>
        <mxCell id="3t87ci0f_u1np2Z85wXJ-5" value="" style="endArrow=none;html=1;rounded=0;entryX=0.5;entryY=1;entryDx=0;entryDy=0;exitX=0.5;exitY=0;exitDx=0;exitDy=0;" edge="1" parent="1" source="3t87ci0f_u1np2Z85wXJ-4" target="3t87ci0f_u1np2Z85wXJ-1">
          <mxGeometry width="50" height="50" relative="1" as="geometry">
            <mxPoint x="460" y="190" as="sourcePoint" />
            <mxPoint x="510" y="140" as="targetPoint" />
          </mxGeometry>
        </mxCell>
        <mxCell id="3t87ci0f_u1np2Z85wXJ-6" value="패킷 스니핑" style="ellipse;whiteSpace=wrap;html=1;aspect=fixed;" vertex="1" parent="1">
          <mxGeometry x="530" y="200" width="100" height="100" as="geometry" />
        </mxCell>
        <mxCell id="3t87ci0f_u1np2Z85wXJ-7" value="" style="endArrow=none;html=1;rounded=0;exitX=0.088;exitY=0.142;exitDx=0;exitDy=0;exitPerimeter=0;" edge="1" parent="1" source="3t87ci0f_u1np2Z85wXJ-6">
          <mxGeometry width="50" height="50" relative="1" as="geometry">
            <mxPoint x="390" y="200" as="sourcePoint" />
            <mxPoint x="440" y="150" as="targetPoint" />
          </mxGeometry>
        </mxCell>
        <mxCell id="3t87ci0f_u1np2Z85wXJ-8" value="낸드 플래쉬 복제" style="ellipse;whiteSpace=wrap;html=1;aspect=fixed;" vertex="1" parent="1">
          <mxGeometry x="250" y="360" width="100" height="100" as="geometry" />
        </mxCell>
        <mxCell id="3t87ci0f_u1np2Z85wXJ-9" value="" style="endArrow=none;html=1;rounded=0;exitX=0.766;exitY=0.054;exitDx=0;exitDy=0;exitPerimeter=0;" edge="1" parent="1" source="3t87ci0f_u1np2Z85wXJ-8" target="3t87ci0f_u1np2Z85wXJ-4">
          <mxGeometry width="50" height="50" relative="1" as="geometry">
            <mxPoint x="280" y="320" as="sourcePoint" />
            <mxPoint x="330" y="270" as="targetPoint" />
          </mxGeometry>
        </mxCell>
        <mxCell id="3t87ci0f_u1np2Z85wXJ-10" value="브루트 포스" style="ellipse;whiteSpace=wrap;html=1;aspect=fixed;" vertex="1" parent="1">
          <mxGeometry x="364" y="360" width="100" height="100" as="geometry" />
        </mxCell>
        <mxCell id="3t87ci0f_u1np2Z85wXJ-11" value="" style="endArrow=none;html=1;rounded=0;exitX=0;exitY=0;exitDx=0;exitDy=0;entryX=0.422;entryY=1.022;entryDx=0;entryDy=0;entryPerimeter=0;" edge="1" parent="1" source="3t87ci0f_u1np2Z85wXJ-10" target="3t87ci0f_u1np2Z85wXJ-4">
          <mxGeometry width="50" height="50" relative="1" as="geometry">
            <mxPoint x="370" y="300" as="sourcePoint" />
            <mxPoint x="420" y="250" as="targetPoint" />
          </mxGeometry>
        </mxCell>
        <mxCell id="3t87ci0f_u1np2Z85wXJ-12" value="" style="endArrow=none;html=1;rounded=0;" edge="1" parent="1">
          <mxGeometry width="50" height="50" relative="1" as="geometry">
            <mxPoint x="342" y="330" as="sourcePoint" />
            <mxPoint x="372" y="330" as="targetPoint" />
          </mxGeometry>
        </mxCell>
        <mxCell id="3t87ci0f_u1np2Z85wXJ-13" value="" style="ellipse;whiteSpace=wrap;html=1;aspect=fixed;" vertex="1" parent="1">
          <mxGeometry x="590" y="310" width="80" height="80" as="geometry" />
        </mxCell>
        <mxCell id="3t87ci0f_u1np2Z85wXJ-14" value="&lt;span style=&quot;color: rgb(33, 37, 41); font-family: poppins, arial, sans-serif; font-size: 14px; font-style: normal; font-weight: 400; letter-spacing: normal; text-align: left; text-indent: 0px; text-transform: none; word-spacing: 0px; background-color: rgb(255, 255, 255); display: inline; float: none;&quot;&gt;E1_T3&lt;/span&gt;" style="text;whiteSpace=wrap;html=1;" vertex="1" parent="1">
          <mxGeometry x="200" y="300" width="70" height="30" as="geometry" />
        </mxCell>
      </root>
    </mxGraphModel>
  </diagram>
</mxfile>
